<mxfile host="app.diagrams.net" agent="Mozilla/5.0 (Windows NT 10.0; Win64; x64) AppleWebKit/537.36 (KHTML, like Gecko) Chrome/135.0.0.0 Safari/537.36 Edg/135.0.0.0" version="26.2.14">
  <diagram name="Página-1" id="vmfSOTZad44XujycQGls">
    <mxGraphModel dx="1522" dy="920" grid="0" gridSize="12" guides="1" tooltips="1" connect="1" arrows="1" fold="1" page="1" pageScale="1" pageWidth="827" pageHeight="1169" background="none" math="0" shadow="0" adaptiveColors="auto">
      <root>
        <mxCell id="0" />
        <mxCell id="1" parent="0" />
        <mxCell id="sHOgxMRu5il_qkBQHWgy-1" value="Cadastro" style="swimlane;fontStyle=0;childLayout=stackLayout;horizontal=1;startSize=30;horizontalStack=0;resizeParent=1;resizeParentMax=0;resizeLast=0;collapsible=1;marginBottom=0;whiteSpace=wrap;html=1;labelBackgroundColor=none;" vertex="1" parent="1">
          <mxGeometry y="641" width="170" height="240" as="geometry" />
        </mxCell>
        <mxCell id="sHOgxMRu5il_qkBQHWgy-2" value="Nome e Sobrenome&amp;nbsp;&lt;span style=&quot;color: rgb(153, 0, 0);&quot;&gt;/String&lt;/span&gt;" style="text;strokeColor=none;fillColor=none;align=left;verticalAlign=middle;spacingLeft=4;spacingRight=4;overflow=hidden;points=[[0,0.5],[1,0.5]];portConstraint=eastwest;rotatable=0;whiteSpace=wrap;html=1;labelBackgroundColor=none;" vertex="1" parent="sHOgxMRu5il_qkBQHWgy-1">
          <mxGeometry y="30" width="170" height="30" as="geometry" />
        </mxCell>
        <mxCell id="sHOgxMRu5il_qkBQHWgy-3" value="E-mail&amp;nbsp;&lt;span style=&quot;color: rgb(153, 0, 0);&quot;&gt;/String&lt;/span&gt;" style="text;strokeColor=none;fillColor=none;align=left;verticalAlign=middle;spacingLeft=4;spacingRight=4;overflow=hidden;points=[[0,0.5],[1,0.5]];portConstraint=eastwest;rotatable=0;whiteSpace=wrap;html=1;labelBackgroundColor=none;" vertex="1" parent="sHOgxMRu5il_qkBQHWgy-1">
          <mxGeometry y="60" width="170" height="30" as="geometry" />
        </mxCell>
        <mxCell id="sHOgxMRu5il_qkBQHWgy-4" value="CPF&amp;nbsp;&lt;span style=&quot;color: rgb(153, 0, 0);&quot;&gt;/Int&lt;/span&gt;" style="text;strokeColor=none;fillColor=none;align=left;verticalAlign=middle;spacingLeft=4;spacingRight=4;overflow=hidden;points=[[0,0.5],[1,0.5]];portConstraint=eastwest;rotatable=0;whiteSpace=wrap;html=1;labelBackgroundColor=none;" vertex="1" parent="sHOgxMRu5il_qkBQHWgy-1">
          <mxGeometry y="90" width="170" height="30" as="geometry" />
        </mxCell>
        <mxCell id="sHOgxMRu5il_qkBQHWgy-7" value="Número de Telefone&amp;nbsp;&lt;span style=&quot;color: rgb(153, 0, 0);&quot;&gt;/Int&lt;/span&gt;" style="text;strokeColor=none;fillColor=none;align=left;verticalAlign=middle;spacingLeft=4;spacingRight=4;overflow=hidden;points=[[0,0.5],[1,0.5]];portConstraint=eastwest;rotatable=0;whiteSpace=wrap;html=1;labelBackgroundColor=none;" vertex="1" parent="sHOgxMRu5il_qkBQHWgy-1">
          <mxGeometry y="120" width="170" height="30" as="geometry" />
        </mxCell>
        <mxCell id="sHOgxMRu5il_qkBQHWgy-6" value="Data de Nascimento&amp;nbsp;&lt;span style=&quot;color: rgb(153, 0, 0);&quot;&gt;/Int&lt;/span&gt;" style="text;strokeColor=none;fillColor=none;align=left;verticalAlign=middle;spacingLeft=4;spacingRight=4;overflow=hidden;points=[[0,0.5],[1,0.5]];portConstraint=eastwest;rotatable=0;whiteSpace=wrap;html=1;labelBackgroundColor=none;" vertex="1" parent="sHOgxMRu5il_qkBQHWgy-1">
          <mxGeometry y="150" width="170" height="30" as="geometry" />
        </mxCell>
        <mxCell id="sHOgxMRu5il_qkBQHWgy-5" value="Senha&amp;nbsp;&lt;span style=&quot;color: rgb(153, 0, 0);&quot;&gt;/String&lt;/span&gt;" style="text;strokeColor=none;fillColor=none;align=left;verticalAlign=middle;spacingLeft=4;spacingRight=4;overflow=hidden;points=[[0,0.5],[1,0.5]];portConstraint=eastwest;rotatable=0;whiteSpace=wrap;html=1;labelBackgroundColor=none;" vertex="1" parent="sHOgxMRu5il_qkBQHWgy-1">
          <mxGeometry y="180" width="170" height="30" as="geometry" />
        </mxCell>
        <mxCell id="sHOgxMRu5il_qkBQHWgy-148" value="Endereço&amp;nbsp;&lt;span style=&quot;color: rgb(153, 0, 0);&quot;&gt;/String&lt;/span&gt;" style="text;strokeColor=none;fillColor=none;align=left;verticalAlign=middle;spacingLeft=4;spacingRight=4;overflow=hidden;points=[[0,0.5],[1,0.5]];portConstraint=eastwest;rotatable=0;whiteSpace=wrap;html=1;labelBackgroundColor=none;" vertex="1" parent="sHOgxMRu5il_qkBQHWgy-1">
          <mxGeometry y="210" width="170" height="30" as="geometry" />
        </mxCell>
        <mxCell id="sHOgxMRu5il_qkBQHWgy-35" style="edgeStyle=none;rounded=0;orthogonalLoop=1;jettySize=auto;html=1;exitX=0.5;exitY=0;exitDx=0;exitDy=0;endArrow=none;startFill=0;labelBackgroundColor=none;fontColor=default;" edge="1" parent="1">
          <mxGeometry relative="1" as="geometry">
            <mxPoint x="80" y="476" as="sourcePoint" />
            <mxPoint x="80" y="436" as="targetPoint" />
          </mxGeometry>
        </mxCell>
        <mxCell id="sHOgxMRu5il_qkBQHWgy-10" value="Login" style="swimlane;fontStyle=0;childLayout=stackLayout;horizontal=1;startSize=30;horizontalStack=0;resizeParent=1;resizeParentMax=0;resizeLast=0;collapsible=1;marginBottom=0;whiteSpace=wrap;html=1;labelBackgroundColor=none;" vertex="1" parent="1">
          <mxGeometry y="476" width="170" height="120" as="geometry" />
        </mxCell>
        <mxCell id="sHOgxMRu5il_qkBQHWgy-13" value="E-mail&amp;nbsp;&lt;span style=&quot;color: rgb(153, 0, 0);&quot;&gt;/String&lt;/span&gt;" style="text;strokeColor=none;fillColor=none;align=left;verticalAlign=middle;spacingLeft=4;spacingRight=4;overflow=hidden;points=[[0,0.5],[1,0.5]];portConstraint=eastwest;rotatable=0;whiteSpace=wrap;html=1;labelBackgroundColor=none;" vertex="1" parent="sHOgxMRu5il_qkBQHWgy-10">
          <mxGeometry y="30" width="170" height="30" as="geometry" />
        </mxCell>
        <mxCell id="sHOgxMRu5il_qkBQHWgy-15" value="Número de Telefone&amp;nbsp;&lt;span style=&quot;color: rgb(153, 0, 0);&quot;&gt;/Int&lt;/span&gt;" style="text;strokeColor=none;fillColor=none;align=left;verticalAlign=middle;spacingLeft=4;spacingRight=4;overflow=hidden;points=[[0,0.5],[1,0.5]];portConstraint=eastwest;rotatable=0;whiteSpace=wrap;html=1;labelBackgroundColor=none;" vertex="1" parent="sHOgxMRu5il_qkBQHWgy-10">
          <mxGeometry y="60" width="170" height="30" as="geometry" />
        </mxCell>
        <mxCell id="sHOgxMRu5il_qkBQHWgy-14" value="Senha&amp;nbsp;&lt;span style=&quot;color: rgb(153, 0, 0);&quot;&gt;/String&lt;/span&gt;" style="text;strokeColor=none;fillColor=none;align=left;verticalAlign=middle;spacingLeft=4;spacingRight=4;overflow=hidden;points=[[0,0.5],[1,0.5]];portConstraint=eastwest;rotatable=0;whiteSpace=wrap;html=1;labelBackgroundColor=none;" vertex="1" parent="sHOgxMRu5il_qkBQHWgy-10">
          <mxGeometry y="90" width="170" height="30" as="geometry" />
        </mxCell>
        <mxCell id="sHOgxMRu5il_qkBQHWgy-19" style="rounded=0;orthogonalLoop=1;jettySize=auto;html=1;entryX=0.508;entryY=1.022;entryDx=0;entryDy=0;entryPerimeter=0;startArrow=none;startFill=0;endArrow=none;labelBackgroundColor=none;fontColor=default;" edge="1" parent="1">
          <mxGeometry relative="1" as="geometry">
            <mxPoint x="80" y="641" as="sourcePoint" />
            <mxPoint x="80.36000000000001" y="595.6600000000001" as="targetPoint" />
          </mxGeometry>
        </mxCell>
        <mxCell id="sHOgxMRu5il_qkBQHWgy-28" value="Skin Glow" style="rounded=0;whiteSpace=wrap;html=1;labelBackgroundColor=none;" vertex="1" parent="1">
          <mxGeometry x="354" width="120" height="60" as="geometry" />
        </mxCell>
        <mxCell id="sHOgxMRu5il_qkBQHWgy-29" value="Meus Pedidos" style="swimlane;fontStyle=0;childLayout=stackLayout;horizontal=1;startSize=30;horizontalStack=0;resizeParent=1;resizeParentMax=0;resizeLast=0;collapsible=1;marginBottom=0;whiteSpace=wrap;html=1;labelBackgroundColor=none;" vertex="1" parent="1">
          <mxGeometry x="1" y="346" width="170" height="90" as="geometry" />
        </mxCell>
        <mxCell id="sHOgxMRu5il_qkBQHWgy-30" value="Carrinho&amp;nbsp;&lt;span style=&quot;color: rgb(153, 0, 0);&quot;&gt;/String&lt;/span&gt;" style="text;strokeColor=none;fillColor=none;align=left;verticalAlign=middle;spacingLeft=4;spacingRight=4;overflow=hidden;points=[[0,0.5],[1,0.5]];portConstraint=eastwest;rotatable=0;whiteSpace=wrap;html=1;labelBackgroundColor=none;" vertex="1" parent="sHOgxMRu5il_qkBQHWgy-29">
          <mxGeometry y="30" width="170" height="30" as="geometry" />
        </mxCell>
        <mxCell id="sHOgxMRu5il_qkBQHWgy-31" value="Lista de Desejos&amp;nbsp;&lt;span style=&quot;color: rgb(153, 0, 0);&quot;&gt;/String&lt;/span&gt;" style="text;strokeColor=none;fillColor=none;align=left;verticalAlign=middle;spacingLeft=4;spacingRight=4;overflow=hidden;points=[[0,0.5],[1,0.5]];portConstraint=eastwest;rotatable=0;whiteSpace=wrap;html=1;labelBackgroundColor=none;" vertex="1" parent="sHOgxMRu5il_qkBQHWgy-29">
          <mxGeometry y="60" width="170" height="30" as="geometry" />
        </mxCell>
        <mxCell id="sHOgxMRu5il_qkBQHWgy-74" style="rounded=0;orthogonalLoop=1;jettySize=auto;html=1;entryX=0.508;entryY=1.022;entryDx=0;entryDy=0;entryPerimeter=0;startArrow=none;startFill=0;endArrow=none;labelBackgroundColor=none;fontColor=default;" edge="1" parent="1">
          <mxGeometry relative="1" as="geometry">
            <mxPoint x="80" y="346" as="sourcePoint" />
            <mxPoint x="80.36000000000001" y="300.6600000000001" as="targetPoint" />
          </mxGeometry>
        </mxCell>
        <mxCell id="sHOgxMRu5il_qkBQHWgy-75" value="Minha Conta" style="rounded=0;whiteSpace=wrap;html=1;" vertex="1" parent="1">
          <mxGeometry x="2" y="230" width="170" height="70" as="geometry" />
        </mxCell>
        <mxCell id="sHOgxMRu5il_qkBQHWgy-80" value="Corporal" style="swimlane;fontStyle=0;childLayout=stackLayout;horizontal=1;startSize=30;horizontalStack=0;resizeParent=1;resizeParentMax=0;resizeLast=0;collapsible=1;marginBottom=0;whiteSpace=wrap;html=1;labelBackgroundColor=none;" vertex="1" parent="1">
          <mxGeometry x="494" y="798" width="170" height="240" as="geometry" />
        </mxCell>
        <mxCell id="sHOgxMRu5il_qkBQHWgy-83" value="Esfoliante Natural&amp;nbsp;&lt;span style=&quot;color: rgb(153, 0, 0);&quot;&gt;/String&lt;/span&gt;" style="text;strokeColor=none;fillColor=none;align=left;verticalAlign=middle;spacingLeft=4;spacingRight=4;overflow=hidden;points=[[0,0.5],[1,0.5]];portConstraint=eastwest;rotatable=0;whiteSpace=wrap;html=1;labelBackgroundColor=none;" vertex="1" parent="sHOgxMRu5il_qkBQHWgy-80">
          <mxGeometry y="30" width="170" height="30" as="geometry" />
        </mxCell>
        <mxCell id="sHOgxMRu5il_qkBQHWgy-84" value="Sabonete Artesanal&amp;nbsp;&lt;span style=&quot;color: rgb(153, 0, 0);&quot;&gt;/String&lt;/span&gt;" style="text;strokeColor=none;fillColor=none;align=left;verticalAlign=middle;spacingLeft=4;spacingRight=4;overflow=hidden;points=[[0,0.5],[1,0.5]];portConstraint=eastwest;rotatable=0;whiteSpace=wrap;html=1;labelBackgroundColor=none;" vertex="1" parent="sHOgxMRu5il_qkBQHWgy-80">
          <mxGeometry y="60" width="170" height="30" as="geometry" />
        </mxCell>
        <mxCell id="sHOgxMRu5il_qkBQHWgy-86" value="Gel de Limpeza&amp;nbsp;&lt;span style=&quot;color: rgb(153, 0, 0);&quot;&gt;/String&lt;/span&gt;" style="text;strokeColor=none;fillColor=none;align=left;verticalAlign=middle;spacingLeft=4;spacingRight=4;overflow=hidden;points=[[0,0.5],[1,0.5]];portConstraint=eastwest;rotatable=0;whiteSpace=wrap;html=1;labelBackgroundColor=none;" vertex="1" parent="sHOgxMRu5il_qkBQHWgy-80">
          <mxGeometry y="90" width="170" height="30" as="geometry" />
        </mxCell>
        <mxCell id="sHOgxMRu5il_qkBQHWgy-123" value="Tónico Facial&amp;nbsp;&lt;span style=&quot;color: rgb(153, 0, 0);&quot;&gt;/String&lt;/span&gt;" style="text;strokeColor=none;fillColor=none;align=left;verticalAlign=middle;spacingLeft=4;spacingRight=4;overflow=hidden;points=[[0,0.5],[1,0.5]];portConstraint=eastwest;rotatable=0;whiteSpace=wrap;html=1;labelBackgroundColor=none;" vertex="1" parent="sHOgxMRu5il_qkBQHWgy-80">
          <mxGeometry y="120" width="170" height="30" as="geometry" />
        </mxCell>
        <mxCell id="sHOgxMRu5il_qkBQHWgy-124" value="Creme Hidratante&amp;nbsp;&lt;span style=&quot;color: rgb(153, 0, 0);&quot;&gt;/String&lt;/span&gt;" style="text;strokeColor=none;fillColor=none;align=left;verticalAlign=middle;spacingLeft=4;spacingRight=4;overflow=hidden;points=[[0,0.5],[1,0.5]];portConstraint=eastwest;rotatable=0;whiteSpace=wrap;html=1;labelBackgroundColor=none;" vertex="1" parent="sHOgxMRu5il_qkBQHWgy-80">
          <mxGeometry y="150" width="170" height="30" as="geometry" />
        </mxCell>
        <mxCell id="sHOgxMRu5il_qkBQHWgy-126" value="Óleo Corporal&amp;nbsp;&lt;span style=&quot;color: rgb(153, 0, 0);&quot;&gt;/String&lt;/span&gt;" style="text;strokeColor=none;fillColor=none;align=left;verticalAlign=middle;spacingLeft=4;spacingRight=4;overflow=hidden;points=[[0,0.5],[1,0.5]];portConstraint=eastwest;rotatable=0;whiteSpace=wrap;html=1;labelBackgroundColor=none;" vertex="1" parent="sHOgxMRu5il_qkBQHWgy-80">
          <mxGeometry y="180" width="170" height="30" as="geometry" />
        </mxCell>
        <mxCell id="sHOgxMRu5il_qkBQHWgy-127" value="Manteiga de Karité&amp;nbsp;&lt;span style=&quot;color: rgb(153, 0, 0);&quot;&gt;/String&lt;/span&gt;" style="text;strokeColor=none;fillColor=none;align=left;verticalAlign=middle;spacingLeft=4;spacingRight=4;overflow=hidden;points=[[0,0.5],[1,0.5]];portConstraint=eastwest;rotatable=0;whiteSpace=wrap;html=1;labelBackgroundColor=none;" vertex="1" parent="sHOgxMRu5il_qkBQHWgy-80">
          <mxGeometry y="210" width="170" height="30" as="geometry" />
        </mxCell>
        <mxCell id="sHOgxMRu5il_qkBQHWgy-92" style="rounded=0;orthogonalLoop=1;jettySize=auto;html=1;entryX=0.508;entryY=1.022;entryDx=0;entryDy=0;entryPerimeter=0;startArrow=none;startFill=0;endArrow=none;labelBackgroundColor=none;fontColor=default;" edge="1" parent="1">
          <mxGeometry relative="1" as="geometry">
            <mxPoint x="572" y="798" as="sourcePoint" />
            <mxPoint x="572.36" y="752.6600000000001" as="targetPoint" />
          </mxGeometry>
        </mxCell>
        <mxCell id="sHOgxMRu5il_qkBQHWgy-96" value="Skincare" style="swimlane;fontStyle=0;childLayout=stackLayout;horizontal=1;startSize=30;horizontalStack=0;resizeParent=1;resizeParentMax=0;resizeLast=0;collapsible=1;marginBottom=0;whiteSpace=wrap;html=1;labelBackgroundColor=none;" vertex="1" parent="1">
          <mxGeometry x="492" y="346" width="170" height="150" as="geometry" />
        </mxCell>
        <mxCell id="sHOgxMRu5il_qkBQHWgy-85" value="Máscara Facial&amp;nbsp;&lt;span style=&quot;color: rgb(153, 0, 0);&quot;&gt;/String&lt;/span&gt;" style="text;strokeColor=none;fillColor=none;align=left;verticalAlign=middle;spacingLeft=4;spacingRight=4;overflow=hidden;points=[[0,0.5],[1,0.5]];portConstraint=eastwest;rotatable=0;whiteSpace=wrap;html=1;labelBackgroundColor=none;" vertex="1" parent="sHOgxMRu5il_qkBQHWgy-96">
          <mxGeometry y="30" width="170" height="30" as="geometry" />
        </mxCell>
        <mxCell id="sHOgxMRu5il_qkBQHWgy-81" value="Sérum Facial Natural&amp;nbsp;&lt;span style=&quot;color: rgb(153, 0, 0);&quot;&gt;/String&lt;/span&gt;" style="text;strokeColor=none;fillColor=none;align=left;verticalAlign=middle;spacingLeft=4;spacingRight=4;overflow=hidden;points=[[0,0.5],[1,0.5]];portConstraint=eastwest;rotatable=0;whiteSpace=wrap;html=1;labelBackgroundColor=none;" vertex="1" parent="sHOgxMRu5il_qkBQHWgy-96">
          <mxGeometry y="60" width="170" height="30" as="geometry" />
        </mxCell>
        <mxCell id="sHOgxMRu5il_qkBQHWgy-105" value="Gel Facial&amp;nbsp;&lt;span style=&quot;color: rgb(153, 0, 0);&quot;&gt;/String&lt;/span&gt;" style="text;strokeColor=none;fillColor=none;align=left;verticalAlign=middle;spacingLeft=4;spacingRight=4;overflow=hidden;points=[[0,0.5],[1,0.5]];portConstraint=eastwest;rotatable=0;whiteSpace=wrap;html=1;labelBackgroundColor=none;" vertex="1" parent="sHOgxMRu5il_qkBQHWgy-96">
          <mxGeometry y="90" width="170" height="30" as="geometry" />
        </mxCell>
        <mxCell id="sHOgxMRu5il_qkBQHWgy-106" value="Hidratante Facial&amp;nbsp;&lt;span style=&quot;color: rgb(153, 0, 0);&quot;&gt;/String&lt;/span&gt;" style="text;strokeColor=none;fillColor=none;align=left;verticalAlign=middle;spacingLeft=4;spacingRight=4;overflow=hidden;points=[[0,0.5],[1,0.5]];portConstraint=eastwest;rotatable=0;whiteSpace=wrap;html=1;labelBackgroundColor=none;" vertex="1" parent="sHOgxMRu5il_qkBQHWgy-96">
          <mxGeometry y="120" width="170" height="30" as="geometry" />
        </mxCell>
        <mxCell id="sHOgxMRu5il_qkBQHWgy-102" style="rounded=0;orthogonalLoop=1;jettySize=auto;html=1;entryX=0.508;entryY=1.022;entryDx=0;entryDy=0;entryPerimeter=0;startArrow=none;startFill=0;endArrow=none;labelBackgroundColor=none;fontColor=default;" edge="1" parent="1">
          <mxGeometry relative="1" as="geometry">
            <mxPoint x="573" y="542" as="sourcePoint" />
            <mxPoint x="573.36" y="496.6600000000001" as="targetPoint" />
          </mxGeometry>
        </mxCell>
        <mxCell id="sHOgxMRu5il_qkBQHWgy-103" style="rounded=0;orthogonalLoop=1;jettySize=auto;html=1;entryX=0.508;entryY=1.022;entryDx=0;entryDy=0;entryPerimeter=0;startArrow=none;startFill=0;endArrow=none;labelBackgroundColor=none;fontColor=default;" edge="1" parent="1">
          <mxGeometry relative="1" as="geometry">
            <mxPoint x="572" y="346" as="sourcePoint" />
            <mxPoint x="572.36" y="300.6600000000001" as="targetPoint" />
          </mxGeometry>
        </mxCell>
        <mxCell id="sHOgxMRu5il_qkBQHWgy-104" value="Produtos" style="rounded=0;whiteSpace=wrap;html=1;" vertex="1" parent="1">
          <mxGeometry x="494" y="230" width="170" height="70" as="geometry" />
        </mxCell>
        <mxCell id="sHOgxMRu5il_qkBQHWgy-109" value="Capilar" style="swimlane;fontStyle=0;childLayout=stackLayout;horizontal=1;startSize=30;horizontalStack=0;resizeParent=1;resizeParentMax=0;resizeLast=0;collapsible=1;marginBottom=0;whiteSpace=wrap;html=1;labelBackgroundColor=none;" vertex="1" parent="1">
          <mxGeometry x="492" y="542" width="170" height="210" as="geometry" />
        </mxCell>
        <mxCell id="sHOgxMRu5il_qkBQHWgy-122" value="Gel de Aloe Vera&amp;nbsp;&lt;span style=&quot;color: rgb(153, 0, 0);&quot;&gt;/String&lt;/span&gt;" style="text;strokeColor=none;fillColor=none;align=left;verticalAlign=middle;spacingLeft=4;spacingRight=4;overflow=hidden;points=[[0,0.5],[1,0.5]];portConstraint=eastwest;rotatable=0;whiteSpace=wrap;html=1;labelBackgroundColor=none;" vertex="1" parent="sHOgxMRu5il_qkBQHWgy-109">
          <mxGeometry y="30" width="170" height="30" as="geometry" />
        </mxCell>
        <mxCell id="sHOgxMRu5il_qkBQHWgy-111" value="Shampoo Natural&amp;nbsp;&lt;span style=&quot;color: rgb(153, 0, 0);&quot;&gt;/String&lt;/span&gt;" style="text;strokeColor=none;fillColor=none;align=left;verticalAlign=middle;spacingLeft=4;spacingRight=4;overflow=hidden;points=[[0,0.5],[1,0.5]];portConstraint=eastwest;rotatable=0;whiteSpace=wrap;html=1;labelBackgroundColor=none;" vertex="1" parent="sHOgxMRu5il_qkBQHWgy-109">
          <mxGeometry y="60" width="170" height="30" as="geometry" />
        </mxCell>
        <mxCell id="sHOgxMRu5il_qkBQHWgy-112" value="Condicionador Natural&amp;nbsp;&lt;span style=&quot;color: rgb(153, 0, 0);&quot;&gt;/String&lt;/span&gt;" style="text;strokeColor=none;fillColor=none;align=left;verticalAlign=middle;spacingLeft=4;spacingRight=4;overflow=hidden;points=[[0,0.5],[1,0.5]];portConstraint=eastwest;rotatable=0;whiteSpace=wrap;html=1;labelBackgroundColor=none;" vertex="1" parent="sHOgxMRu5il_qkBQHWgy-109">
          <mxGeometry y="90" width="170" height="30" as="geometry" />
        </mxCell>
        <mxCell id="sHOgxMRu5il_qkBQHWgy-113" value="Creme Capilar&amp;nbsp;&lt;span style=&quot;color: rgb(153, 0, 0);&quot;&gt;/String&lt;/span&gt;" style="text;strokeColor=none;fillColor=none;align=left;verticalAlign=middle;spacingLeft=4;spacingRight=4;overflow=hidden;points=[[0,0.5],[1,0.5]];portConstraint=eastwest;rotatable=0;whiteSpace=wrap;html=1;labelBackgroundColor=none;" vertex="1" parent="sHOgxMRu5il_qkBQHWgy-109">
          <mxGeometry y="120" width="170" height="30" as="geometry" />
        </mxCell>
        <mxCell id="sHOgxMRu5il_qkBQHWgy-114" value="Óleo Capilar&amp;nbsp;&lt;span style=&quot;color: rgb(153, 0, 0);&quot;&gt;/String&lt;/span&gt;" style="text;strokeColor=none;fillColor=none;align=left;verticalAlign=middle;spacingLeft=4;spacingRight=4;overflow=hidden;points=[[0,0.5],[1,0.5]];portConstraint=eastwest;rotatable=0;whiteSpace=wrap;html=1;labelBackgroundColor=none;" vertex="1" parent="sHOgxMRu5il_qkBQHWgy-109">
          <mxGeometry y="150" width="170" height="30" as="geometry" />
        </mxCell>
        <mxCell id="sHOgxMRu5il_qkBQHWgy-125" value="Tónico Capilar&amp;nbsp;&lt;span style=&quot;color: rgb(153, 0, 0);&quot;&gt;/String&lt;/span&gt;" style="text;strokeColor=none;fillColor=none;align=left;verticalAlign=middle;spacingLeft=4;spacingRight=4;overflow=hidden;points=[[0,0.5],[1,0.5]];portConstraint=eastwest;rotatable=0;whiteSpace=wrap;html=1;labelBackgroundColor=none;" vertex="1" parent="sHOgxMRu5il_qkBQHWgy-109">
          <mxGeometry y="180" width="170" height="30" as="geometry" />
        </mxCell>
        <mxCell id="sHOgxMRu5il_qkBQHWgy-130" value="Compra" style="swimlane;fontStyle=0;childLayout=stackLayout;horizontal=1;startSize=30;horizontalStack=0;resizeParent=1;resizeParentMax=0;resizeLast=0;collapsible=1;marginBottom=0;whiteSpace=wrap;html=1;labelBackgroundColor=none;" vertex="1" parent="1">
          <mxGeometry x="216" y="506" width="179" height="90" as="geometry" />
        </mxCell>
        <mxCell id="sHOgxMRu5il_qkBQHWgy-131" value="Endereço&amp;nbsp;&lt;span style=&quot;color: rgb(153, 0, 0);&quot;&gt;/String&lt;/span&gt;" style="text;strokeColor=none;fillColor=none;align=left;verticalAlign=middle;spacingLeft=4;spacingRight=4;overflow=hidden;points=[[0,0.5],[1,0.5]];portConstraint=eastwest;rotatable=0;whiteSpace=wrap;html=1;labelBackgroundColor=none;" vertex="1" parent="sHOgxMRu5il_qkBQHWgy-130">
          <mxGeometry y="30" width="179" height="30" as="geometry" />
        </mxCell>
        <mxCell id="sHOgxMRu5il_qkBQHWgy-132" value="Forma de Pagamento&amp;nbsp;&lt;span style=&quot;color: rgb(153, 0, 0);&quot;&gt;/&lt;/span&gt;&lt;font color=&quot;#990000&quot;&gt;boolean&lt;/font&gt;" style="text;strokeColor=none;fillColor=none;align=left;verticalAlign=middle;spacingLeft=4;spacingRight=4;overflow=hidden;points=[[0,0.5],[1,0.5]];portConstraint=eastwest;rotatable=0;whiteSpace=wrap;html=1;labelBackgroundColor=none;" vertex="1" parent="sHOgxMRu5il_qkBQHWgy-130">
          <mxGeometry y="60" width="179" height="30" as="geometry" />
        </mxCell>
        <mxCell id="sHOgxMRu5il_qkBQHWgy-140" value="Pagamento" style="swimlane;fontStyle=0;childLayout=stackLayout;horizontal=1;startSize=30;horizontalStack=0;resizeParent=1;resizeParentMax=0;resizeLast=0;collapsible=1;marginBottom=0;whiteSpace=wrap;html=1;labelBackgroundColor=none;" vertex="1" parent="1">
          <mxGeometry x="221" y="644" width="170" height="150" as="geometry" />
        </mxCell>
        <mxCell id="sHOgxMRu5il_qkBQHWgy-141" value="Cartões salvos&amp;nbsp;&lt;span style=&quot;color: rgb(153, 0, 0);&quot;&gt;/String&lt;/span&gt;" style="text;strokeColor=none;fillColor=none;align=left;verticalAlign=middle;spacingLeft=4;spacingRight=4;overflow=hidden;points=[[0,0.5],[1,0.5]];portConstraint=eastwest;rotatable=0;whiteSpace=wrap;html=1;labelBackgroundColor=none;" vertex="1" parent="sHOgxMRu5il_qkBQHWgy-140">
          <mxGeometry y="30" width="170" height="30" as="geometry" />
        </mxCell>
        <mxCell id="sHOgxMRu5il_qkBQHWgy-142" value="Adicionar Cartão&amp;nbsp;&lt;span style=&quot;color: rgb(153, 0, 0);&quot;&gt;/String&lt;/span&gt;" style="text;strokeColor=none;fillColor=none;align=left;verticalAlign=middle;spacingLeft=4;spacingRight=4;overflow=hidden;points=[[0,0.5],[1,0.5]];portConstraint=eastwest;rotatable=0;whiteSpace=wrap;html=1;labelBackgroundColor=none;" vertex="1" parent="sHOgxMRu5il_qkBQHWgy-140">
          <mxGeometry y="60" width="170" height="30" as="geometry" />
        </mxCell>
        <mxCell id="sHOgxMRu5il_qkBQHWgy-143" value="Pix / Qrcode&amp;nbsp;&lt;span style=&quot;color: rgb(153, 0, 0);&quot;&gt;/Float&lt;/span&gt;" style="text;strokeColor=none;fillColor=none;align=left;verticalAlign=middle;spacingLeft=4;spacingRight=4;overflow=hidden;points=[[0,0.5],[1,0.5]];portConstraint=eastwest;rotatable=0;whiteSpace=wrap;html=1;labelBackgroundColor=none;" vertex="1" parent="sHOgxMRu5il_qkBQHWgy-140">
          <mxGeometry y="90" width="170" height="30" as="geometry" />
        </mxCell>
        <mxCell id="sHOgxMRu5il_qkBQHWgy-144" value="Boleto&amp;nbsp;&lt;span style=&quot;color: rgb(153, 0, 0);&quot;&gt;/Float&lt;/span&gt;" style="text;strokeColor=none;fillColor=none;align=left;verticalAlign=middle;spacingLeft=4;spacingRight=4;overflow=hidden;points=[[0,0.5],[1,0.5]];portConstraint=eastwest;rotatable=0;whiteSpace=wrap;html=1;labelBackgroundColor=none;" vertex="1" parent="sHOgxMRu5il_qkBQHWgy-140">
          <mxGeometry y="120" width="170" height="30" as="geometry" />
        </mxCell>
        <mxCell id="sHOgxMRu5il_qkBQHWgy-146" style="edgeStyle=orthogonalEdgeStyle;rounded=0;orthogonalLoop=1;jettySize=auto;html=1;exitX=0;exitY=0.5;exitDx=0;exitDy=0;entryX=1.029;entryY=0.076;entryDx=0;entryDy=0;entryPerimeter=0;" edge="1" parent="1" source="sHOgxMRu5il_qkBQHWgy-141" target="sHOgxMRu5il_qkBQHWgy-1">
          <mxGeometry relative="1" as="geometry" />
        </mxCell>
        <mxCell id="sHOgxMRu5il_qkBQHWgy-147" style="rounded=0;orthogonalLoop=1;jettySize=auto;html=1;entryX=0.508;entryY=1.022;entryDx=0;entryDy=0;entryPerimeter=0;startArrow=none;startFill=0;endArrow=none;labelBackgroundColor=none;fontColor=default;" edge="1" parent="1">
          <mxGeometry relative="1" as="geometry">
            <mxPoint x="302" y="643" as="sourcePoint" />
            <mxPoint x="302.36" y="597.6600000000001" as="targetPoint" />
          </mxGeometry>
        </mxCell>
        <mxCell id="sHOgxMRu5il_qkBQHWgy-149" style="edgeStyle=orthogonalEdgeStyle;rounded=0;orthogonalLoop=1;jettySize=auto;html=1;exitX=0;exitY=0.5;exitDx=0;exitDy=0;entryX=1;entryY=0.5;entryDx=0;entryDy=0;" edge="1" parent="1" source="sHOgxMRu5il_qkBQHWgy-131" target="sHOgxMRu5il_qkBQHWgy-148">
          <mxGeometry relative="1" as="geometry" />
        </mxCell>
        <mxCell id="sHOgxMRu5il_qkBQHWgy-153" value="" style="endArrow=classic;html=1;rounded=0;exitX=1;exitY=0.5;exitDx=0;exitDy=0;edgeStyle=orthogonalEdgeStyle;elbow=vertical;entryX=0.995;entryY=0.106;entryDx=0;entryDy=0;entryPerimeter=0;" edge="1" parent="1" source="sHOgxMRu5il_qkBQHWgy-132" target="sHOgxMRu5il_qkBQHWgy-140">
          <mxGeometry width="50" height="50" relative="1" as="geometry">
            <mxPoint x="319" y="857" as="sourcePoint" />
            <mxPoint x="411" y="888" as="targetPoint" />
            <Array as="points">
              <mxPoint x="396" y="581" />
              <mxPoint x="417" y="580" />
              <mxPoint x="417" y="660" />
            </Array>
          </mxGeometry>
        </mxCell>
        <mxCell id="sHOgxMRu5il_qkBQHWgy-162" value="" style="endArrow=none;html=1;rounded=0;exitX=0.5;exitY=0;exitDx=0;exitDy=0;entryX=0.5;entryY=0;entryDx=0;entryDy=0;edgeStyle=orthogonalEdgeStyle;" edge="1" parent="1">
          <mxGeometry width="50" height="50" relative="1" as="geometry">
            <mxPoint x="130.99999999999994" y="230" as="sourcePoint" />
            <mxPoint x="570" y="230" as="targetPoint" />
            <Array as="points">
              <mxPoint x="131" y="134" />
              <mxPoint x="570" y="134" />
            </Array>
          </mxGeometry>
        </mxCell>
        <mxCell id="sHOgxMRu5il_qkBQHWgy-164" style="edgeStyle=orthogonalEdgeStyle;rounded=0;orthogonalLoop=1;jettySize=auto;html=1;exitX=0.5;exitY=1;exitDx=0;exitDy=0;endArrow=none;startFill=0;" edge="1" parent="1" source="sHOgxMRu5il_qkBQHWgy-28">
          <mxGeometry relative="1" as="geometry">
            <mxPoint x="339" y="135" as="targetPoint" />
          </mxGeometry>
        </mxCell>
      </root>
    </mxGraphModel>
  </diagram>
</mxfile>
